<svg width="54" height="55" viewBox="0 0 54 55" fill="none" xmlns="http://www.w3.org/2000/svg">
<g filter="url(#filter0_d_1_639)">
<rect x="15" y="11.5399" width="24" height="24" rx="12" fill="url(#paint0_linear_1_639)"/>
<path d="M24.369 28.6031C24.369 28.4922 24.3476 28.4367 24.305 28.4367L24.0106 28.5775C24.0106 28.5178 23.9764 28.4751 23.9082 28.4495L23.8058 28.4367C23.7375 28.4367 23.6522 28.4666 23.5498 28.5263C23.5327 28.4837 23.5113 28.441 23.4857 28.3983C23.4602 28.3557 23.4388 28.3173 23.4217 28.2831C23.3108 28.0698 23.1999 27.8351 23.0889 27.5791C22.9865 27.3146 22.8884 27.0629 22.7945 26.8239C22.7092 26.585 22.6409 26.3973 22.5897 26.2607C22.5556 26.1498 22.5172 25.9834 22.4745 25.7615C22.4319 25.5397 22.3892 25.2581 22.3465 24.9167C22.4404 24.9765 22.5129 25.0063 22.5641 25.0063C22.6239 25.0063 22.6793 24.9167 22.7305 24.7375C22.7561 24.7717 22.8031 24.7887 22.8714 24.7887C22.9225 24.7887 22.9609 24.7717 22.9865 24.7375L23.1914 24.4303L23.4217 24.5071H23.4346C23.4516 24.5071 23.4687 24.4986 23.4857 24.4815C23.5028 24.4645 23.5284 24.4474 23.5626 24.4303C23.6308 24.3877 23.682 24.3663 23.7162 24.3663L23.7546 24.3791C23.9679 24.4815 24.1044 24.6693 24.1641 24.9423C24.3178 25.5909 24.4714 25.9151 24.625 25.9151C24.7786 25.9151 24.9578 25.753 25.1626 25.4287C25.265 25.2666 25.3674 25.0789 25.4698 24.8655C25.5807 24.6522 25.6916 24.4133 25.8026 24.1487C25.8196 24.2511 25.8367 24.3023 25.8538 24.3023C25.8964 24.3023 25.969 24.1957 26.0714 23.9823C26.1823 23.769 26.3572 23.4746 26.5962 23.0991C26.7327 22.8687 26.9034 22.6084 27.1082 22.3183C27.3215 22.0282 27.5476 21.7295 27.7866 21.4223C28.0255 21.1151 28.2559 20.825 28.4778 20.5519C28.7082 20.2788 28.913 20.0442 29.0922 19.8479C29.2714 19.6516 29.4036 19.5236 29.489 19.4639C29.8132 19.242 30.0692 19.0287 30.257 18.8239C30.2484 18.8836 30.2356 18.9391 30.2186 18.9903C30.21 19.033 30.2058 19.0628 30.2058 19.0799C30.2058 19.114 30.2228 19.1311 30.257 19.1311L30.6154 18.9519V19.0031C30.6154 19.0714 30.6324 19.1055 30.6666 19.1055C30.6922 19.1055 30.7434 19.0671 30.8202 18.9903C30.897 18.9135 30.9396 18.858 30.9482 18.8239L30.9226 19.0031L31.3578 18.7471L31.2554 18.9775C31.3919 18.8836 31.49 18.8367 31.5498 18.8367C31.5839 18.8367 31.6095 18.858 31.6266 18.9007C31.6436 18.9348 31.6522 18.969 31.6522 19.0031C31.6522 19.0543 31.6308 19.114 31.5882 19.1823C31.5455 19.2506 31.49 19.3316 31.4218 19.4255C31.3706 19.4938 31.2852 19.5962 31.1658 19.7327C31.0548 19.8607 30.8842 20.0527 30.6538 20.3087C30.4234 20.5562 30.1162 20.9018 29.7322 21.3455C29.6298 21.4564 29.4719 21.6527 29.2586 21.9343C29.0452 22.2074 28.802 22.5274 28.529 22.8943C28.2644 23.2527 27.9999 23.6154 27.7354 23.9823C27.4708 24.3493 27.2362 24.6821 27.0314 24.9807C26.8266 25.2709 26.6815 25.4885 26.5962 25.6335L25.8026 26.9775C25.6319 27.2677 25.4911 27.5066 25.3802 27.6943C25.2692 27.8735 25.1839 27.9973 25.1242 28.0655C24.9962 28.2191 24.8554 28.3557 24.7018 28.4751L24.5866 28.4111L24.4842 28.4751L24.369 28.6031Z" fill="white"/>
</g>
<defs>
<filter id="filter0_d_1_639" x="0" y="0.539917" width="54" height="54" filterUnits="userSpaceOnUse" color-interpolation-filters="sRGB">
<feFlood flood-opacity="0" result="BackgroundImageFix"/>
<feColorMatrix in="SourceAlpha" type="matrix" values="0 0 0 0 0 0 0 0 0 0 0 0 0 0 0 0 0 0 127 0" result="hardAlpha"/>
<feOffset dy="4"/>
<feGaussianBlur stdDeviation="7.5"/>
<feComposite in2="hardAlpha" operator="out"/>
<feColorMatrix type="matrix" values="0 0 0 0 0.376471 0 0 0 0 0.647059 0 0 0 0 0.980392 0 0 0 0.4 0"/>
<feBlend mode="normal" in2="BackgroundImageFix" result="effect1_dropShadow_1_639"/>
<feBlend mode="normal" in="SourceGraphic" in2="effect1_dropShadow_1_639" result="shape"/>
</filter>
<linearGradient id="paint0_linear_1_639" x1="15" y1="11.5399" x2="39" y2="35.5399" gradientUnits="userSpaceOnUse">
<stop stop-color="#60A5FA"/>
<stop offset="1" stop-color="#3B82F6"/>
</linearGradient>
</defs>
</svg>
